<svg width="120" height="120" viewBox="0 0 120 120" fill="none" xmlns="http://www.w3.org/2000/svg">
<rect width="120" height="120" rx="20" fill="#F3F4F6"/>
<path d="M60 34C45.0883 34 33 46.0883 33 61C33 75.9117 45.0883 88 60 88C74.9117 88 87 75.9117 87 61C87 46.0883 74.9117 34 60 34ZM42.5 61C42.5 54.0964 48.0964 48.5 55 48.5C61.9036 48.5 67.5 54.0964 67.5 61C67.5 67.9036 61.9036 73.5 55 73.5C48.0964 73.5 42.5 67.9036 42.5 61ZM76.5 73.5C73.4624 73.5 70.75 71.9654 69.0713 69.6405C71.7333 66.6798 73.5 62.7629 73.5 58.5C73.5 54.2371 71.7333 50.3202 69.0713 47.3595C70.75 45.0346 73.4624 43.5 76.5 43.5C82.053 43.5 86.5 47.947 86.5 53.5C86.5 59.053 82.053 63.5 76.5 63.5C73.4624 63.5 70.75 61.9654 69.0713 59.6405C71.7333 56.6798 73.5 52.7629 73.5 48.5C73.5 44.2371 71.7333 40.3202 69.0713 37.3595C70.75 35.0346 73.4624 33.5 76.5 33.5C84.5751 33.5 91.5 40.4249 91.5 48.5C91.5 56.5751 84.5751 63.5 76.5 63.5Z" fill="#CBD5F5"/>
</svg>
